<svg width="48" height="48" viewBox="0 0 48 48" fill="none" xmlns="http://www.w3.org/2000/svg">
<path d="M5.94355 33.9425C4.32673 33.9425 2.94531 33.37 1.80018 32.2244C0.654596 31.0793 0.0820312 29.6978 0.0820312 28.081V0.120789H10.2555V24.9819H37.7445V0.120789H47.918V28.081C47.918 29.6978 47.3472 31.0788 46.2062 32.2244C45.0652 33.37 43.6883 33.9425 42.0774 33.9425H29.1206V47.2828H18.9467V33.9425H5.94355ZM5.94355 33.9425C4.32673 33.9425 2.94531 33.37 1.80018 32.2244C0.654596 31.0793 0.0820312 29.6978 0.0820312 28.081V0.120789H10.2555V24.9819H37.7445V0.120789H47.918V28.081C47.918 29.6978 47.3472 31.0788 46.2062 32.2244C45.0652 33.37 43.6883 33.9425 42.0774 33.9425H29.1206V47.2828H18.9467V33.9425H5.94355Z" fill="url(#paint0_linear_335_13)"/>
<defs>
<linearGradient id="paint0_linear_335_13" x1="23.9998" y1="0.120789" x2="23.9998" y2="47.2828" gradientUnits="userSpaceOnUse">
<stop stop-color="#47E29F"/>
<stop offset="1" stop-color="#1F85BD"/>
</linearGradient>
</defs>
</svg>
