<svg width="213" height="209" viewBox="0 0 213 209" fill="none" xmlns="http://www.w3.org/2000/svg">
<path d="M26.7556 149.724C19.5993 149.724 13.4848 147.19 8.41618 142.12C3.34558 137.051 0.811279 130.936 0.811279 123.78V0.0219727H45.8413V110.063H167.514V0.0219727H212.544V123.78C212.544 130.936 210.017 137.049 204.967 142.12C199.916 147.19 193.822 149.724 186.692 149.724H129.342V208.772H84.3103V149.724H26.7556ZM26.7556 149.724C19.5993 149.724 13.4848 147.19 8.41618 142.12C3.34558 137.051 0.811279 130.936 0.811279 123.78V0.0219727H45.8413V110.063H167.514V0.0219727H212.544V123.78C212.544 130.936 210.017 137.049 204.967 142.12C199.916 147.19 193.822 149.724 186.692 149.724H129.342V208.772H84.3103V149.724H26.7556Z" fill="#CACACA"/>
</svg>
