<svg width="181" height="46" viewBox="0 0 181 46" fill="none" xmlns="http://www.w3.org/2000/svg">
<path d="M21.9418 8.84674C21.9418 10.0593 21.7506 11.1986 21.3681 12.2647C20.9856 13.3308 20.4404 14.2585 19.7324 15.0479C19.0325 15.8373 18.1902 16.4599 17.2055 16.9156C16.2208 17.3713 15.1262 17.5992 13.9218 17.5992H8.09906C6.88649 17.5992 5.78379 17.3713 4.79095 16.9156C3.79812 16.4599 2.94769 15.8373 2.23969 15.0479C1.53982 14.2585 0.998637 13.3308 0.61615 12.2647C0.233663 11.1986 0.0424194 10.0593 0.0424194 8.84674C0.0424194 7.64231 0.233663 6.51113 0.61615 5.45319C0.998637 4.38711 1.53982 3.45937 2.23969 2.66998C2.94769 1.87246 3.79812 1.24583 4.79095 0.7901C5.78379 0.326233 6.88649 0.0942993 8.09906 0.0942993H13.9218C15.1262 0.0942993 16.2208 0.326233 17.2055 0.7901C18.1902 1.24583 19.0325 1.87246 19.7324 2.66998C20.4404 3.45937 20.9856 4.38711 21.3681 5.45319C21.7506 6.51113 21.9418 7.64231 21.9418 8.84674ZM19.4394 8.84674C19.4394 7.98411 19.3133 7.17438 19.061 6.41754C18.8087 5.66071 18.4425 5.00153 17.9623 4.44C17.4903 3.87034 16.9125 3.42275 16.2289 3.09723C15.5535 2.76357 14.7844 2.59674 13.9218 2.59674H8.09906C7.23643 2.59674 6.45925 2.76357 5.76752 3.09723C5.08392 3.42275 4.50205 3.87034 4.02191 4.44C3.54991 5.00153 3.1837 5.66071 2.92328 6.41754C2.671 7.17438 2.54486 7.98411 2.54486 8.84674C2.54486 9.70937 2.671 10.5232 2.92328 11.2881C3.1837 12.045 3.54991 12.7082 4.02191 13.2779C4.50205 13.8394 5.08392 14.2829 5.76752 14.6085C6.45925 14.934 7.23643 15.0967 8.09906 15.0967H13.9218C14.7844 15.0967 15.5535 14.934 16.2289 14.6085C16.9125 14.2829 17.4903 13.8394 17.9623 13.2779C18.4425 12.7082 18.8087 12.045 19.061 11.2881C19.3133 10.5232 19.4394 9.70937 19.4394 8.84674ZM63.2138 12.5943C63.2138 13.2942 63.0836 13.9493 62.8232 14.5596C62.5628 15.1618 62.2047 15.6908 61.749 16.1465C61.3014 16.5941 60.7724 16.9481 60.162 17.2086C59.5598 17.469 58.9129 17.5992 58.2211 17.5992H43.0112V15.0967H58.2211C58.5711 15.0967 58.8966 15.0316 59.1977 14.9014C59.4988 14.7712 59.7592 14.5922 59.9789 14.3643C60.2068 14.1365 60.3858 13.872 60.5161 13.5709C60.6463 13.2616 60.7114 12.9361 60.7114 12.5943C60.7114 12.2525 60.6463 11.9311 60.5161 11.6299C60.3858 11.3288 60.2068 11.0644 59.9789 10.8365C59.7592 10.6086 59.4988 10.4296 59.1977 10.2994C58.8966 10.1692 58.5711 10.1041 58.2211 10.1041H48.0161C47.3325 10.1041 46.6855 9.97386 46.0751 9.71344C45.4648 9.45302 44.9317 9.09902 44.476 8.65143C44.0284 8.1957 43.6703 7.66266 43.4018 7.05231C43.1414 6.44196 43.0112 5.79091 43.0112 5.09918C43.0112 4.41559 43.1414 3.76862 43.4018 3.15826C43.6703 2.54791 44.0284 2.01894 44.476 1.57135C44.9317 1.11562 45.4648 0.757548 46.0751 0.497131C46.6855 0.228577 47.3325 0.0942993 48.0161 0.0942993H61.9687V2.59674H48.0161C47.6743 2.59674 47.3487 2.66184 47.0395 2.79205C46.7384 2.92226 46.4739 3.1013 46.246 3.32916C46.0182 3.55703 45.8391 3.82558 45.7089 4.13483C45.5787 4.43593 45.5136 4.75739 45.5136 5.09918C45.5136 5.44098 45.5787 5.7665 45.7089 6.07574C45.8391 6.37685 46.0182 6.64134 46.246 6.8692C46.4739 7.09707 46.7384 7.2761 47.0395 7.40631C47.3487 7.53652 47.6743 7.60162 48.0161 7.60162H58.2211C58.9129 7.60162 59.5598 7.7359 60.162 8.00446C60.7724 8.26487 61.3014 8.62295 61.749 9.07867C62.2047 9.52627 62.5628 10.0552 62.8232 10.6656C63.0836 11.2678 63.2138 11.9107 63.2138 12.5943ZM75.6528 17.5992H73.1503V2.59674H64.3002V0.0942993H84.5029V2.59674H75.6528V17.5992ZM104.962 17.5992H86.8588V0.0942993H104.962V2.59674H89.3613V15.0967H104.962V17.5992ZM102.838 10.1041H90.6064V7.60162H102.838V10.1041ZM128.277 17.5992H124.896L119.647 12.5943H111.981V10.1285H122.027C122.548 10.1285 123.036 10.0308 123.492 9.83551C123.948 9.63206 124.343 9.35944 124.676 9.01764C125.018 8.67584 125.287 8.27708 125.482 7.82135C125.677 7.35748 125.775 6.86513 125.775 6.3443C125.775 5.82347 125.677 5.33518 125.482 4.87946C125.287 4.42373 125.018 4.02903 124.676 3.69537C124.343 3.35358 123.948 3.08502 123.492 2.88971C123.036 2.6944 122.548 2.59674 122.027 2.59674H110.577V17.5992H108.075V0.0942993H122.027C122.89 0.0942993 123.7 0.261129 124.456 0.594788C125.213 0.920308 125.872 1.3679 126.434 1.93756C127.004 2.49908 127.451 3.15826 127.777 3.9151C128.11 4.67194 128.277 5.48167 128.277 6.3443C128.277 7.12555 128.143 7.86611 127.874 8.56598C127.606 9.25771 127.236 9.88027 126.764 10.4337C126.292 10.9789 125.734 11.4346 125.091 11.8008C124.456 12.1589 123.769 12.399 123.028 12.5211L128.277 17.5992ZM19.3661 45.5992H8.09906C6.88649 45.5992 5.78379 45.3713 4.79095 44.9156C3.79812 44.4599 2.94769 43.8373 2.23969 43.0479C1.53982 42.2585 0.998637 41.3308 0.61615 40.2647C0.233663 39.1986 0.0424194 38.0593 0.0424194 36.8467C0.0424194 35.6423 0.233663 34.5111 0.61615 33.4532C0.998637 32.3871 1.53982 31.4594 2.23969 30.67C2.94769 29.8725 3.79812 29.2458 4.79095 28.7901C5.78379 28.3262 6.88649 28.0943 8.09906 28.0943H19.3661V30.5967H8.09906C7.23643 30.5967 6.45925 30.7636 5.76752 31.0972C5.08392 31.4227 4.50205 31.8703 4.02191 32.44C3.54991 33.0015 3.1837 33.6607 2.92328 34.4175C2.671 35.1744 2.54486 35.9841 2.54486 36.8467C2.54486 37.7094 2.671 38.5232 2.92328 39.2881C3.1837 40.045 3.54991 40.7082 4.02191 41.2779C4.50205 41.8394 5.08392 42.2829 5.76752 42.6085C6.45925 42.934 7.23643 43.0967 8.09906 43.0967H19.3661V45.5992ZM43.0844 36.8467C43.0844 38.0593 42.8932 39.1986 42.5107 40.2647C42.1282 41.3308 41.5829 42.2585 40.8749 43.0479C40.1751 43.8373 39.3328 44.4599 38.3481 44.9156C37.3634 45.3713 36.2688 45.5992 35.0644 45.5992H29.2416C28.0291 45.5992 26.9264 45.3713 25.9335 44.9156C24.9407 44.4599 24.0903 43.8373 23.3823 43.0479C22.6824 42.2585 22.1412 41.3308 21.7587 40.2647C21.3762 39.1986 21.185 38.0593 21.185 36.8467C21.185 35.6423 21.3762 34.5111 21.7587 33.4532C22.1412 32.3871 22.6824 31.4594 23.3823 30.67C24.0903 29.8725 24.9407 29.2458 25.9335 28.7901C26.9264 28.3262 28.0291 28.0943 29.2416 28.0943H35.0644C36.2688 28.0943 37.3634 28.3262 38.3481 28.7901C39.3328 29.2458 40.1751 29.8725 40.8749 30.67C41.5829 31.4594 42.1282 32.3871 42.5107 33.4532C42.8932 34.5111 43.0844 35.6423 43.0844 36.8467ZM40.582 36.8467C40.582 35.9841 40.4558 35.1744 40.2036 34.4175C39.9513 33.6607 39.5851 33.0015 39.1049 32.44C38.6329 31.8703 38.0551 31.4227 37.3715 31.0972C36.6961 30.7636 35.927 30.5967 35.0644 30.5967H29.2416C28.379 30.5967 27.6018 30.7636 26.9101 31.0972C26.2265 31.4227 25.6446 31.8703 25.1645 32.44C24.6925 33.0015 24.3263 33.6607 24.0659 34.4175C23.8136 35.1744 23.6874 35.9841 23.6874 36.8467C23.6874 37.7094 23.8136 38.5232 24.0659 39.2881C24.3263 40.045 24.6925 40.7082 25.1645 41.2779C25.6446 41.8394 26.2265 42.2829 26.9101 42.6085C27.6018 42.934 28.379 43.0967 29.2416 43.0967H35.0644C35.927 43.0967 36.6961 42.934 37.3715 42.6085C38.0551 42.2829 38.6329 41.8394 39.1049 41.2779C39.5851 40.7082 39.9513 40.045 40.2036 39.2881C40.4558 38.5232 40.582 37.7094 40.582 36.8467ZM58.8803 45.5992H56.3779V36.8467C56.3779 35.9841 56.2151 35.1744 55.8896 34.4175C55.5641 33.6607 55.1165 33.0015 54.5468 32.44C53.9853 31.8703 53.322 31.4227 52.5571 31.0972C51.8002 30.7636 50.9905 30.5967 50.1279 30.5967H48.7851V45.5992H46.2827V28.0943H50.1279C50.9254 28.0943 51.6904 28.2001 52.4228 28.4117C53.1634 28.6151 53.8551 28.904 54.498 29.2784C55.1409 29.6527 55.7268 30.1003 56.2558 30.6212C56.7848 31.142 57.2446 31.7198 57.6352 32.3546C58.0177 31.7198 58.4734 31.142 59.0024 30.6212C59.5314 30.1003 60.1173 29.6527 60.7602 29.2784C61.4031 28.904 62.0908 28.6151 62.8232 28.4117C63.5637 28.2001 64.3328 28.0943 65.1303 28.0943H68.9877V45.5992H66.4853V30.5967H65.1303C64.2677 30.5967 63.4579 30.7636 62.7011 31.0972C61.9443 31.4227 61.281 31.8703 60.7114 32.44C60.1498 33.0015 59.7023 33.6607 59.3686 34.4175C59.0431 35.1744 58.8803 35.9841 58.8803 36.8467V45.5992ZM93.3896 34.3443C93.3896 35.2069 93.2228 36.0207 92.8891 36.7857C92.5636 37.5425 92.116 38.2058 91.5463 38.7755C90.9848 39.337 90.3256 39.7805 89.5688 40.106C88.812 40.4315 88.0022 40.5943 87.1396 40.5943H77.0932V38.1285H87.1396C87.6604 38.1285 88.1487 38.0308 88.6044 37.8355C89.0602 37.6321 89.4549 37.3594 89.7885 37.0176C90.1303 36.6758 90.3989 36.2771 90.5942 35.8214C90.7895 35.3575 90.8871 34.8651 90.8871 34.3443C90.8871 33.8235 90.7895 33.3352 90.5942 32.8795C90.3989 32.4237 90.1303 32.029 89.7885 31.6954C89.4549 31.3536 89.0602 31.085 88.6044 30.8897C88.1487 30.6944 87.6604 30.5967 87.1396 30.5967H75.6894V45.5992H73.187V28.0943H87.1396C88.0022 28.0943 88.812 28.2611 89.5688 28.5948C90.3256 28.9203 90.9848 29.3679 91.5463 29.9376C92.116 30.4991 92.5636 31.1583 92.8891 31.9151C93.2228 32.6719 93.3896 33.4817 93.3896 34.3443ZM114.862 28.0943L114.837 36.8467C114.837 37.6605 114.732 38.4418 114.52 39.1905C114.317 39.9311 114.024 40.6269 113.641 41.2779C113.267 41.9208 112.811 42.5108 112.274 43.0479C111.745 43.5769 111.155 44.0326 110.504 44.4151C109.861 44.7894 109.169 45.0824 108.429 45.294C107.688 45.4975 106.915 45.5992 106.109 45.5992H104.266C103.46 45.5992 102.683 45.4975 101.935 45.294C101.194 45.0824 100.498 44.7854 99.8471 44.4029C99.2042 44.0204 98.6183 43.5647 98.0893 43.0357C97.5603 42.4986 97.1046 41.9086 96.7221 41.2657C96.3478 40.6146 96.0548 39.9188 95.8432 39.1783C95.6398 38.4296 95.538 37.6524 95.538 36.8467V28.0943H98.0405V36.8467C98.0405 37.7094 98.2032 38.5232 98.5287 39.2881C98.8543 40.045 99.2978 40.7082 99.8593 41.2779C100.429 41.8394 101.092 42.2829 101.849 42.6085C102.606 42.934 103.412 43.0967 104.266 43.0967H106.109C106.972 43.0967 107.782 42.934 108.539 42.6085C109.295 42.2829 109.955 41.8394 110.516 41.2779C111.078 40.7082 111.521 40.045 111.847 39.2881C112.172 38.5232 112.335 37.7094 112.335 36.8467V28.0943H114.837H114.862ZM127.972 45.5992H125.47V30.5967H116.62V28.0943H136.822V30.5967H127.972V45.5992ZM157.281 45.5992H139.178V28.0943H157.281V30.5967H141.681V43.0967H157.281V45.5992ZM155.157 38.1041H142.926V35.6016H155.157V38.1041ZM180.597 45.5992H177.215L171.966 40.5943H164.3V38.1285H174.347C174.867 38.1285 175.356 38.0308 175.811 37.8355C176.267 37.6321 176.662 37.3594 176.996 37.0176C177.337 36.6758 177.606 36.2771 177.801 35.8214C177.997 35.3575 178.094 34.8651 178.094 34.3443C178.094 33.8235 177.997 33.3352 177.801 32.8795C177.606 32.4237 177.337 32.029 176.996 31.6954C176.662 31.3536 176.267 31.085 175.811 30.8897C175.356 30.6944 174.867 30.5967 174.347 30.5967H162.896V45.5992H160.394V28.0943H174.347C175.209 28.0943 176.019 28.2611 176.776 28.5948C177.533 28.9203 178.192 29.3679 178.753 29.9376C179.323 30.4991 179.771 31.1583 180.096 31.9151C180.43 32.6719 180.597 33.4817 180.597 34.3443C180.597 35.1255 180.462 35.8661 180.194 36.566C179.925 37.2577 179.555 37.8803 179.083 38.4337C178.611 38.9789 178.053 39.4346 177.411 39.8008C176.776 40.1589 176.088 40.399 175.348 40.5211L180.597 45.5992Z" fill="white"/>
</svg>
